<mxfile host="app.diagrams.net" modified="2023-12-03T19:47:06.607Z" agent="Mozilla/5.0 (Macintosh; Intel Mac OS X 10_15_7) AppleWebKit/537.36 (KHTML, like Gecko) Chrome/119.0.0.0 Safari/537.36" etag="2v8ddGYqARGMQAKTNYQN" version="22.1.5" type="google">
  <diagram name="Page-1" id="8fy_XHnKnDPMRJ78dxSQ">
    <mxGraphModel grid="1" page="1" gridSize="10" guides="1" tooltips="1" connect="1" arrows="1" fold="1" pageScale="1" pageWidth="827" pageHeight="1169" math="0" shadow="0">
      <root>
        <mxCell id="0" />
        <mxCell id="1" parent="0" />
        <mxCell id="SufgbbVZ5XO0gPLY01CE-3" value="" style="edgeStyle=orthogonalEdgeStyle;rounded=0;orthogonalLoop=1;jettySize=auto;html=1;" edge="1" parent="1" source="SufgbbVZ5XO0gPLY01CE-1" target="SufgbbVZ5XO0gPLY01CE-2">
          <mxGeometry relative="1" as="geometry" />
        </mxCell>
        <mxCell id="SufgbbVZ5XO0gPLY01CE-1" value="Create Profile Screen&lt;br&gt;&lt;br&gt;username:&amp;nbsp;&lt;br&gt;Profile pic:&lt;br&gt;" style="whiteSpace=wrap;html=1;aspect=fixed;fillColor=#d5e8d4;strokeColor=#82b366;" vertex="1" parent="1">
          <mxGeometry x="334" y="-180" width="210" height="210" as="geometry" />
        </mxCell>
        <mxCell id="du-C6FzKQ64IcEJ96cqO-4" value="" style="edgeStyle=orthogonalEdgeStyle;rounded=0;orthogonalLoop=1;jettySize=auto;html=1;" edge="1" parent="1" source="SufgbbVZ5XO0gPLY01CE-2" target="du-C6FzKQ64IcEJ96cqO-3">
          <mxGeometry relative="1" as="geometry" />
        </mxCell>
        <mxCell id="SufgbbVZ5XO0gPLY01CE-2" value="Create Auth Pass Screen:&lt;br&gt;DID&lt;br&gt;&lt;br&gt;&lt;br&gt;" style="whiteSpace=wrap;html=1;aspect=fixed;fillColor=#d5e8d4;strokeColor=#82b366;" vertex="1" parent="1">
          <mxGeometry x="334" y="50" width="170" height="170" as="geometry" />
        </mxCell>
        <mxCell id="SufgbbVZ5XO0gPLY01CE-4" value="&lt;font style=&quot;font-size: 24px;&quot;&gt;Basic UI/UX Flow of Gammy Links&lt;/font&gt;" style="text;html=1;align=center;verticalAlign=middle;resizable=0;points=[];autosize=1;strokeColor=none;fillColor=none;" vertex="1" parent="1">
          <mxGeometry x="244" y="-250" width="390" height="40" as="geometry" />
        </mxCell>
        <mxCell id="SufgbbVZ5XO0gPLY01CE-8" value="" style="edgeStyle=orthogonalEdgeStyle;rounded=0;orthogonalLoop=1;jettySize=auto;html=1;entryX=0.5;entryY=0;entryDx=0;entryDy=0;" edge="1" parent="1" source="SufgbbVZ5XO0gPLY01CE-5" target="SufgbbVZ5XO0gPLY01CE-9">
          <mxGeometry relative="1" as="geometry">
            <mxPoint x="700" y="390" as="targetPoint" />
          </mxGeometry>
        </mxCell>
        <mxCell id="SufgbbVZ5XO0gPLY01CE-22" value="" style="edgeStyle=orthogonalEdgeStyle;rounded=0;orthogonalLoop=1;jettySize=auto;html=1;" edge="1" parent="1" source="SufgbbVZ5XO0gPLY01CE-5" target="SufgbbVZ5XO0gPLY01CE-21">
          <mxGeometry relative="1" as="geometry" />
        </mxCell>
        <mxCell id="SufgbbVZ5XO0gPLY01CE-5" value="Landing Screens&lt;br&gt;&lt;br&gt;display of All Assets and Catergory" style="whiteSpace=wrap;html=1;aspect=fixed;fillColor=#d5e8d4;strokeColor=#82b366;" vertex="1" parent="1">
          <mxGeometry x="334" y="440" width="210" height="210" as="geometry" />
        </mxCell>
        <mxCell id="SufgbbVZ5XO0gPLY01CE-11" value="" style="edgeStyle=orthogonalEdgeStyle;rounded=0;orthogonalLoop=1;jettySize=auto;html=1;" edge="1" parent="1" source="SufgbbVZ5XO0gPLY01CE-9" target="SufgbbVZ5XO0gPLY01CE-10">
          <mxGeometry relative="1" as="geometry" />
        </mxCell>
        <mxCell id="SufgbbVZ5XO0gPLY01CE-14" value="" style="edgeStyle=orthogonalEdgeStyle;rounded=0;orthogonalLoop=1;jettySize=auto;html=1;" edge="1" parent="1" source="SufgbbVZ5XO0gPLY01CE-9" target="SufgbbVZ5XO0gPLY01CE-13">
          <mxGeometry relative="1" as="geometry" />
        </mxCell>
        <mxCell id="SufgbbVZ5XO0gPLY01CE-16" style="edgeStyle=orthogonalEdgeStyle;rounded=0;orthogonalLoop=1;jettySize=auto;html=1;" edge="1" parent="1" source="SufgbbVZ5XO0gPLY01CE-9" target="SufgbbVZ5XO0gPLY01CE-15">
          <mxGeometry relative="1" as="geometry" />
        </mxCell>
        <mxCell id="SufgbbVZ5XO0gPLY01CE-9" value="Menu" style="ellipse;whiteSpace=wrap;html=1;aspect=fixed;fillColor=#f8cecc;strokeColor=#b85450;" vertex="1" parent="1">
          <mxGeometry x="386.5" y="680" width="105" height="105" as="geometry" />
        </mxCell>
        <mxCell id="SufgbbVZ5XO0gPLY01CE-10" value="Buy NFTs/Tokens Screen" style="whiteSpace=wrap;html=1;aspect=fixed;fillColor=#d5e8d4;strokeColor=#82b366;" vertex="1" parent="1">
          <mxGeometry x="710" y="650" width="172.5" height="172.5" as="geometry" />
        </mxCell>
        <mxCell id="SufgbbVZ5XO0gPLY01CE-13" value="Sell NFTs/ Tokens Screen" style="whiteSpace=wrap;html=1;aspect=fixed;fillColor=#d5e8d4;strokeColor=#82b366;" vertex="1" parent="1">
          <mxGeometry x="210" y="890" width="180" height="180" as="geometry" />
        </mxCell>
        <mxCell id="SufgbbVZ5XO0gPLY01CE-15" value="Bridging NFTs to Other gaming platform for use, Screen" style="whiteSpace=wrap;html=1;aspect=fixed;fillColor=#d5e8d4;strokeColor=#82b366;" vertex="1" parent="1">
          <mxGeometry x="60" y="670" width="200" height="200" as="geometry" />
        </mxCell>
        <mxCell id="SufgbbVZ5XO0gPLY01CE-17" value="User Profile Screen" style="whiteSpace=wrap;html=1;aspect=fixed;fillColor=#d5e8d4;strokeColor=#82b366;" vertex="1" parent="1">
          <mxGeometry x="600" y="930" width="150" height="150" as="geometry" />
        </mxCell>
        <mxCell id="SufgbbVZ5XO0gPLY01CE-18" style="edgeStyle=orthogonalEdgeStyle;rounded=0;orthogonalLoop=1;jettySize=auto;html=1;exitX=1;exitY=1;exitDx=0;exitDy=0;entryX=0.057;entryY=-0.001;entryDx=0;entryDy=0;entryPerimeter=0;" edge="1" parent="1" source="SufgbbVZ5XO0gPLY01CE-9" target="SufgbbVZ5XO0gPLY01CE-17">
          <mxGeometry relative="1" as="geometry" />
        </mxCell>
        <mxCell id="SufgbbVZ5XO0gPLY01CE-19" value="Asset Details Screen" style="whiteSpace=wrap;html=1;aspect=fixed;fillColor=#d5e8d4;strokeColor=#82b366;" vertex="1" parent="1">
          <mxGeometry x="850" y="410" width="150" height="150" as="geometry" />
        </mxCell>
        <mxCell id="SufgbbVZ5XO0gPLY01CE-23" value="" style="edgeStyle=orthogonalEdgeStyle;rounded=0;orthogonalLoop=1;jettySize=auto;html=1;" edge="1" parent="1" source="SufgbbVZ5XO0gPLY01CE-21" target="SufgbbVZ5XO0gPLY01CE-19">
          <mxGeometry relative="1" as="geometry" />
        </mxCell>
        <mxCell id="SufgbbVZ5XO0gPLY01CE-21" value="Clicking on individual Asset" style="rhombus;whiteSpace=wrap;html=1;fillColor=#dae8fc;strokeColor=#6c8ebf;" vertex="1" parent="1">
          <mxGeometry x="590" y="400" width="190" height="190" as="geometry" />
        </mxCell>
        <mxCell id="du-C6FzKQ64IcEJ96cqO-1" value="1. History of the Assets&lt;br&gt;2. Market place of the assets&amp;nbsp;" style="text;html=1;align=center;verticalAlign=middle;resizable=0;points=[];autosize=1;strokeColor=none;fillColor=none;" vertex="1" parent="1">
          <mxGeometry y="453" width="180" height="40" as="geometry" />
        </mxCell>
        <mxCell id="du-C6FzKQ64IcEJ96cqO-2" value="Data should be data display&lt;br&gt;&lt;br&gt;*Network &lt;br/&gt;*CA&lt;br/&gt;*Amount of tokens&lt;br/&gt;*Worth in dollars" style="text;html=1;align=center;verticalAlign=middle;resizable=0;points=[];autosize=1;strokeColor=none;fillColor=none;" vertex="1" parent="1">
          <mxGeometry x="85" y="1113" width="170" height="100" as="geometry" />
        </mxCell>
        <mxCell id="du-C6FzKQ64IcEJ96cqO-5" value="" style="edgeStyle=orthogonalEdgeStyle;rounded=0;orthogonalLoop=1;jettySize=auto;html=1;" edge="1" parent="1" source="du-C6FzKQ64IcEJ96cqO-3" target="SufgbbVZ5XO0gPLY01CE-5">
          <mxGeometry relative="1" as="geometry" />
        </mxCell>
        <mxCell id="du-C6FzKQ64IcEJ96cqO-3" value="Import the Assets from Third Party&lt;br&gt;(Filteration only Gaming)" style="whiteSpace=wrap;html=1;aspect=fixed;fillColor=#d5e8d4;strokeColor=#82b366;" vertex="1" parent="1">
          <mxGeometry x="359.5" y="260" width="119" height="119" as="geometry" />
        </mxCell>
      </root>
    </mxGraphModel>
  </diagram>
</mxfile>
